<?xml version="1.0" encoding="UTF-8" standalone="no"?>
<!-- Created with Inkscape (http://www.inkscape.org/) -->

<svg
   version="1.1"
   id="svg207"
   xml:space="preserve"
   width="32"
   height="32"
   viewBox="0 0 32 32"
   xmlns="http://www.w3.org/2000/svg"
   xmlns:svg="http://www.w3.org/2000/svg"><defs
     id="defs211"><clipPath
       clipPathUnits="userSpaceOnUse"
       id="clipPath221"><path
         d="M 0,24 H 24 V 0 H 0 Z"
         id="path219" /></clipPath></defs><g
     id="g213"
     transform="matrix(1.3333333,0,0,-1.3333333,0,32)"><g
       id="g215"><g
         id="g217"
         clip-path="url(#clipPath221)"><g
           id="g223"
           transform="translate(16.5962,20.5962)"><path
             d="M 0,0 C -1.269,1.269 -2.933,1.904 -4.596,1.904 -6.26,1.904 -7.923,1.269 -9.192,0 c -2.539,-2.539 -2.539,-6.654 0,-9.192 L -4.596,-13.688 0,-9.192 C 2.539,-6.654 2.539,-2.539 0,0 Z"
             style="fill:none;stroke:#000000;stroke-width:3;stroke-linecap:butt;stroke-linejoin:miter;stroke-miterlimit:4;stroke-dasharray:none;stroke-opacity:1"
             id="path225" /></g><g
           id="g227"
           transform="translate(10,16)"><path
             d="M 0,0 C 0,1.104 0.896,2 2,2 3.104,2 4,1.104 4,0 4,-1.104 3.104,-2 2,-2 0.896,-2 0,-1.104 0,0"
             style="fill:#000000;fill-opacity:1;fill-rule:nonzero;stroke:none"
             id="path229" /></g><g
           id="g231"
           transform="translate(6.2227,13.1382)"><path
             d="M 0,0 -1.953,0.706 C -3.27,1.255 -4.723,0.287 -4.723,-1.14 v -8.498 l 6.5,-2 7.5,2 7,-1.705 v 8.721 c 0,0.893 -0.591,1.678 -1.45,1.923 l -2.854,0.955"
             style="fill:none;stroke:#000000;stroke-width:3;stroke-linecap:butt;stroke-linejoin:miter;stroke-miterlimit:4;stroke-dasharray:none;stroke-opacity:1"
             id="path233" /></g></g></g></g></svg>
